<svg xmlns="http://www.w3.org/2000/svg" viewBox="0 0 680 180" role="img" aria-labelledby="title desc"><title id="title">Euno blue</title><desc id="desc">Euno circular portal lockup in blue.</desc><g transform="translate(10 10) scale(.625)"><circle cx="128" cy="128" r="100" fill="#2563EB"/><path d="M158 76H105a25 25 0 0 0-25 25v54a25 25 0 0 0 25 25h53M80 128h62" fill="none" stroke="#fff" stroke-width="22" stroke-linecap="round" stroke-linejoin="round"/></g><g transform="translate(200 50)" fill="none" stroke="#2563EB" stroke-width="15" stroke-linecap="round" stroke-linejoin="round"><path d="M0 0v80M0 0h48M0 40h38M0 80h48"/><path d="M81 22v35c0 31 49 31 49 0V22M130 22v58"/><path d="M164 80V22c0-28 48-28 48 0v58M164 40c0-24 48-24 48 0"/><path d="M291 51c0 39-58 39-58 0s58-39 58 0Z"/></g></svg>
