<svg xmlns="http://www.w3.org/2000/svg" viewBox="0 0 910 180" role="img" aria-labelledby="t d">
  <title id="t">EUNHANNA</title><desc id="d">EUNHANNA horizontal brand mark.</desc>
  <g transform="translate(10 10) scale(.625)"><path fill="#3B82F6" d="M128 16c64 0 112 48 112 112s-48 112-112 112S16 192 16 128 64 16 128 16Z"/><path fill="none" stroke="#fff" stroke-width="22" stroke-linecap="round" d="M75 78h75M75 128h53M75 178h75"/><circle cx="174" cy="128" r="17" fill="#fff"/></g>
  <g transform="translate(200 48)" fill="none" stroke="#111827" stroke-width="15" stroke-linecap="round" stroke-linejoin="round">
    <path d="M0 0v84M0 0h48M0 42h39M0 84h48"/><path d="M77 0v54c0 40 54 40 54 0V0"/><path d="M166 84V0l58 84V0"/><path d="M259 0v84M259 42h56M315 0v84"/><path d="M350 84 379 0l29 84M361 53h36"/><path d="M443 84V0l58 84V0"/><path d="M536 84V0l58 84V0"/><path d="M629 84 658 0l29 84M640 53h36"/>
  </g>
</svg>
